<?xml version="1.0" encoding="UTF-8" standalone="no"?>
<!-- Created with Inkscape (http://www.inkscape.org/) -->

<svg
   width="130.19447"
   height="42.885181"
   viewBox="0 0 130.19447 42.885181"
   version="1.1"
   id="svg1"
   sodipodi:docname="small_dark_fastkit_logo.svg"
   inkscape:version="1.4.2 (1:1.4.2+202505120737+ebf0e940d0)"
   xmlns:inkscape="http://www.inkscape.org/namespaces/inkscape"
   xmlns:sodipodi="http://sodipodi.sourceforge.net/DTD/sodipodi-0.dtd"
   xmlns="http://www.w3.org/2000/svg"
   xmlns:svg="http://www.w3.org/2000/svg">
  <sodipodi:namedview
     id="namedview1"
     pagecolor="#ffffff"
     bordercolor="#000000"
     borderopacity="0.25"
     inkscape:showpageshadow="2"
     inkscape:pageopacity="0.0"
     inkscape:pagecheckerboard="0"
     inkscape:deskcolor="#d1d1d1"
     inkscape:document-units="px"
     inkscape:zoom="2.35"
     inkscape:cx="87.234043"
     inkscape:cy="31.06383"
     inkscape:window-width="1920"
     inkscape:window-height="1048"
     inkscape:window-x="0"
     inkscape:window-y="0"
     inkscape:window-maximized="1"
     inkscape:current-layer="g144"
     showgrid="true">
    <inkscape:grid
       id="grid134"
       units="px"
       originx="-171.90277"
       originy="-68.557417"
       spacingx="1"
       spacingy="1.0000001"
       empcolor="#0099e5"
       empopacity="0.30196078"
       color="#0099e5"
       opacity="0.14901961"
       empspacing="5"
       enabled="true"
       visible="true" />
  </sodipodi:namedview>
  <defs
     id="defs1">
    <inkscape:path-effect
       effect="bspline"
       id="path-effect144"
       is_visible="true"
       lpeversion="1.3"
       weight="33.333333"
       steps="2"
       helper_size="0"
       apply_no_weight="true"
       apply_with_weight="true"
       only_selected="false"
       uniform="false" />
    <inkscape:path-effect
       effect="bspline"
       id="path-effect142"
       is_visible="true"
       lpeversion="1.3"
       weight="33.333333"
       steps="2"
       helper_size="0"
       apply_no_weight="true"
       apply_with_weight="true"
       only_selected="false"
       uniform="false" />
    <inkscape:path-effect
       effect="bspline"
       id="path-effect140"
       is_visible="true"
       lpeversion="1.3"
       weight="33.333333"
       steps="2"
       helper_size="0"
       apply_no_weight="true"
       apply_with_weight="true"
       only_selected="false"
       uniform="false" />
    <inkscape:path-effect
       effect="bspline"
       id="path-effect138"
       is_visible="true"
       lpeversion="1.3"
       weight="33.333333"
       steps="2"
       helper_size="0"
       apply_no_weight="true"
       apply_with_weight="true"
       only_selected="false"
       uniform="false" />
    <inkscape:path-effect
       effect="bspline"
       id="path-effect12"
       is_visible="true"
       lpeversion="1.3"
       weight="33.333333"
       steps="2"
       helper_size="0"
       apply_no_weight="true"
       apply_with_weight="true"
       only_selected="false"
       uniform="false" />
    <inkscape:path-effect
       effect="bspline"
       id="path-effect10"
       is_visible="true"
       lpeversion="1.3"
       weight="33.333333"
       steps="2"
       helper_size="0"
       apply_no_weight="true"
       apply_with_weight="true"
       only_selected="false"
       uniform="false" />
    <inkscape:path-effect
       effect="bspline"
       id="path-effect8"
       is_visible="true"
       lpeversion="1.3"
       weight="33.333333"
       steps="2"
       helper_size="0"
       apply_no_weight="true"
       apply_with_weight="true"
       only_selected="false"
       uniform="false" />
  </defs>
  <g
     inkscape:label="Layer 1"
     inkscape:groupmode="layer"
     id="layer1"
     transform="translate(-171.90277,-68.557419)">
    <g
       id="g7"
       transform="translate(-120.96039,13.239446)">
      <g
         id="g6"
         transform="translate(121.70213,-11.489362)">
        <g
           id="g8"
           transform="rotate(122.00538,95.64124,85.058426)">
          <g
             id="g12"
             transform="translate(-2.7748622,3.508446)">
            <g
               id="g14"
               transform="matrix(1.580976,0,0,1.580976,-64.003851,-58.721188)">
              <g
                 id="g138"
                 transform="translate(-111.62399,12.084355)">
                <g
                   id="g144"
                   transform="matrix(1.2895476,0,0,1.2895476,-38.317998,16.91004)">
                  <g
                     id="g145"
                     transform="matrix(0.28247134,0,0,0.28247134,115.31672,-9.3275566)">
                    <g
                       id="g137"
                       transform="translate(88.040321,-61.309468)">
                      <path
                         style="fill:#fd7e14;fill-opacity:1"
                         d="m 61.137693,59.349207 c -7.765958,-0.744681 -21.524823,-1.241135 -21.4183,-0.106356 0.106522,1.13478 14.077874,3.900682 13.013883,6.702128 -1.06399,2.801447 -17.162959,5.63827 -17.907494,6.666631 -0.744535,1.028361 13.865102,0.248235 10.992558,0.673783 -2.872544,0.425548 -23.226747,2.056721 -23.36839,3.475173 -0.141643,1.418452 19.928877,2.624102 31.631038,0.141771 11.702161,-2.482332 15.035428,-8.652421 15.815552,-12.233991 0.780124,-3.58157 -0.99289,-4.574458 -8.758847,-5.319139 z"
                         id="path8"
                         transform="rotate(-122.00538,97.847048,76.963781)"
                         inkscape:original-d="M 67.1306,59.10098 C 53.371735,58.604526 39.61287,58.108072 25.854005,57.611618 c 13.97191,2.766013 27.943262,5.531915 41.914893,8.297872 -16.099612,2.836937 -32.198581,5.673759 -48.297872,8.510639 14.610221,-0.780158 29.219858,-1.560284 43.829787,-2.340426 -20.355017,1.631239 -40.70922,3.262412 -61.0638296,4.893617 20.0713236,1.205698 40.1418436,2.411348 60.2127656,3.617022 3.3334,-6.170337 6.666667,-12.340426 10,-18.510639 C 70.676664,61.086776 68.90365,60.093888 67.1306,59.10098 Z"
                         inkscape:path-effect="#path-effect8" />
                      <path
                         style="fill:#fd7e14;fill-opacity:1"
                         d="m 61.137693,59.349207 c -7.765958,-0.744681 -21.524823,-1.241135 -21.4183,-0.106356 0.106522,1.13478 14.077874,3.900682 13.013883,6.702128 -1.06399,2.801447 -17.162959,5.63827 -17.907494,6.666631 -0.744535,1.028361 13.865102,0.248235 10.992558,0.673783 -2.872544,0.425548 -23.226747,2.056721 -23.36839,3.475173 -0.141643,1.418452 19.928877,2.624102 31.631038,0.141771 11.702161,-2.482332 15.035428,-8.652421 15.815552,-12.233991 0.780124,-3.58157 -0.99289,-4.574458 -8.758847,-5.319139 z"
                         id="path9"
                         transform="rotate(-122.00538,93.180657,69.927434)"
                         inkscape:original-d="M 67.1306,59.10098 C 53.371735,58.604526 39.61287,58.108072 25.854005,57.611618 c 13.97191,2.766013 27.943262,5.531915 41.914893,8.297872 -16.099612,2.836937 -32.198581,5.673759 -48.297872,8.510639 14.610221,-0.780158 29.219858,-1.560284 43.829787,-2.340426 -20.355017,1.631239 -40.70922,3.262412 -61.0638296,4.893617 20.0713236,1.205698 40.1418436,2.411348 60.2127656,3.617022 3.3334,-6.170337 6.666667,-12.340426 10,-18.510639 C 70.676664,61.086776 68.90365,60.093888 67.1306,59.10098 Z"
                         inkscape:path-effect="#path-effect10" />
                      <path
                         style="fill:#fd7e14;fill-opacity:1"
                         d="m 61.137693,59.349207 c -7.765958,-0.744681 -21.524823,-1.241135 -21.4183,-0.106356 0.106522,1.13478 14.077874,3.900682 13.013883,6.702128 -1.06399,2.801447 -17.162959,5.63827 -17.907494,6.666631 -0.744535,1.028361 13.865102,0.248235 10.992558,0.673783 -2.872544,0.425548 -23.226747,2.056721 -23.36839,3.475173 -0.141643,1.418452 19.928877,2.624102 31.631038,0.141771 11.702161,-2.482332 15.035428,-8.652421 15.815552,-12.233991 0.780124,-3.58157 -0.99289,-4.574458 -8.758847,-5.319139 z"
                         id="path10"
                         transform="rotate(-122.00538,88.334203,62.508076)"
                         inkscape:original-d="M 67.1306,59.10098 C 53.371735,58.604526 39.61287,58.108072 25.854005,57.611618 c 13.97191,2.766013 27.943262,5.531915 41.914893,8.297872 -16.099612,2.836937 -32.198581,5.673759 -48.297872,8.510639 14.610221,-0.780158 29.219858,-1.560284 43.829787,-2.340426 -20.355017,1.631239 -40.70922,3.262412 -61.0638296,4.893617 20.0713236,1.205698 40.1418436,2.411348 60.2127656,3.617022 3.3334,-6.170337 6.666667,-12.340426 10,-18.510639 C 70.676664,61.086776 68.90365,60.093888 67.1306,59.10098 Z"
                         inkscape:path-effect="#path-effect12" />
                      <circle
                         style="fill:#fd7e14;fill-opacity:1"
                         id="path1"
                         r="37.234043"
                         cy="86.80851"
                         cx="96.38298"
                         transform="translate(-0.74174,-1.750084)" />
                      <g
                         id="g13"
                         transform="translate(-0.03189486,-0.33489695)">
                        <ellipse
                           style="fill:#ffffff;fill-opacity:1;stroke-width:1.21197"
                           id="path2"
                           cx="95.63176"
                           cy="85.145172"
                           rx="20.237782"
                           ry="19.155245"
                           transform="matrix(0.99999942,0.00107931,0.00107818,0.99999942,0,0)" />
                        <path
                           style="fill:#fd7e14;fill-opacity:1"
                           d="m 92.010744,80.803465 c -3.470395,5.3205 -16.356041,4.508506 -19.015082,-1.260449 -2.520487,-5.468352 4.79724,-14.960665 10.799313,-14.480206 5.899715,0.472265 11.449231,10.783398 8.215769,15.740655 z"
                           id="path3"
                           sodipodi:nodetypes="saas" />
                        <path
                           style="fill:#fd7e14;fill-opacity:1"
                           d="m 97.694172,80.165167 c 3.470388,5.3205 16.356038,4.508506 19.015078,-1.260449 2.52049,-5.468352 -4.79724,-14.960665 -10.79931,-14.480206 -5.89972,0.472265 -11.449238,10.783398 -8.215768,15.740655 z"
                           id="path4"
                           sodipodi:nodetypes="saas" />
                        <path
                           style="fill:#fd7e14;fill-opacity:1"
                           d="m 93.074574,91.162954 c -3.470395,-5.3205 -16.356041,-4.50851 -19.015082,1.26045 -2.520487,5.468348 4.79724,14.960656 10.799313,14.480196 5.899715,-0.47226 11.449231,-10.783392 8.215769,-15.740646 z"
                           id="path5"
                           sodipodi:nodetypes="saas" />
                        <path
                           style="fill:#fd7e14;fill-opacity:1"
                           d="m 99.289917,90.205507 c 3.470383,-5.3205 16.356033,-4.50851 19.015073,1.26045 2.52049,5.468348 -4.79724,14.960663 -10.79931,14.480203 -5.89972,-0.47226 -11.449233,-10.783399 -8.215763,-15.740653 z"
                           id="path6"
                           sodipodi:nodetypes="saas" />
                      </g>
                    </g>
                    <path
                       id="text137"
                       style="font-size:35.0017px;font-family:'Noto Sans Anatolian Hieroglyphs';-inkscape-font-specification:'Noto Sans Anatolian Hieroglyphs';fill:#fd7e14;stroke:#fd7e14;stroke-width:1.4584"
                       d="m 168.46958,-23.836749 1.66957,2.671325 -21.1925,13.2453166 -7.4018,-11.8428726 2.34483,-1.465519 5.73222,9.171548 7.50939,-4.693369 -5.37975,-8.607601 2.34483,-1.465518 5.37975,8.607601 z M 140.7917,-32.12896 q -1.81798,-2.908776 -1.41357,-5.101488 0.40441,-2.192713 3.19446,-3.936494 l 10.8337,-6.771065 1.18726,1.899609 -1.94042,1.914449 0.0742,0.118726 q 1.95526,0.22261 3.30205,0.990617 1.32824,0.738323 2.5897,2.756658 1.35421,2.166741 1.11676,4.29638 -0.26713,2.148191 -2.701,3.669362 -2.37451,1.484068 -4.81952,0.411828 -2.47468,-1.053689 -5.02357,-4.867747 l -1.77717,-2.645353 -0.9498,0.593627 q -1.98866,1.242908 -2.2224,2.58599 -0.23374,1.343083 0.74946,2.916196 0.77913,1.246619 1.86992,2.13335 1.06111,0.905282 2.14819,1.587954 l -1.45809,2.025754 q -1.21323,-0.686382 -2.48953,-1.869927 -1.30598,-1.164995 -2.27063,-2.708426 z m 8.00656,-6.077263 q 1.97381,2.893935 3.52837,3.532084 1.53601,0.60847 3.04976,-0.337625 1.33567,-0.834789 1.4581,-2.025754 0.10389,-1.220647 -0.6938,-2.496947 -1.26146,-2.018334 -3.19446,-2.667614 -1.96268,-0.63073 -4.27783,0.816237 l -1.42471,0.890442 z m -9.33852,-22.272192 q 2.31515,-1.446968 4.57835,-0.467482 2.26321,0.979485 4.08119,3.888261 1.03885,1.662158 1.5323,3.046052 0.4749,1.354214 0.57508,2.57115 l -2.37451,1.484069 q -0.11873,-1.246617 -0.53798,-2.841992 -0.46748,-1.606505 -1.33937,-3.00153 -1.24291,-1.988653 -2.42274,-2.489526 -1.20952,-0.482322 -2.27805,0.185508 -0.59362,0.371018 -0.86447,0.994327 -0.27084,0.623309 -0.20777,1.780882 0.0445,1.127893 0.43409,3.072023 0.37102,1.91445 0.46377,3.383679 0.0927,1.469228 -0.3673,2.58228 -0.46006,1.113052 -1.76605,1.92929 -2.01833,1.261459 -4.13684,0.315364 -2.13706,-0.975775 -3.80664,-3.6471 -0.90899,-1.454388 -1.39131,-2.886514 -0.53056,-1.443258 -0.71235,-2.856834 l 2.63422,-0.408118 q 0.21519,1.268878 0.60476,2.552598 0.38957,1.283721 1.11305,2.441295 1.00175,1.602794 2.07399,2.129639 1.024,0.515714 1.91445,-0.04081 0.65299,-0.40812 0.88673,-1.090791 0.20406,-0.664121 0.0927,-1.832826 -0.15954,-1.179835 -0.51201,-3.064603 -0.38214,-1.866217 -0.45635,-3.305763 -0.0742,-1.439547 0.43409,-2.541469 0.47861,-1.08337 1.75491,-1.881057 z m -3.17962,-10.766923 q -0.37102,-0.593627 -0.84963,-1.161284 -0.50829,-0.549106 -0.86818,-0.860761 l 1.98865,-1.242907 q 0.46749,0.285683 1.06853,0.983196 0.63073,0.678961 1.07595,1.391314 0.77914,1.246619 1.03143,2.574861 0.20406,1.31711 -0.45635,2.637933 -0.66041,1.320821 -2.5897,2.526627 l -9.26059,5.787869 1.40986,2.255785 -1.24662,0.779137 -2.46726,-1.636187 -4.03296,1.07595 -0.96464,-1.543432 3.65081,-2.281756 -2.87539,-4.600614 2.01834,-1.261459 2.87538,4.600614 9.20123,-5.750767 q 1.45439,-0.908992 1.74007,-2.036885 0.23745,-1.139023 -0.44893,-2.237234 z" />
                    <path
                       id="text138"
                       style="font-size:35.0017px;font-family:'Noto Sans Anatolian Hieroglyphs';-inkscape-font-specification:'Noto Sans Anatolian Hieroglyphs';fill:#444444;fill-opacity:1;stroke-width:1.4584"
                       d="m 122.66766,-97.879331 1.96639,3.146242 -5.42798,13.83525 3.25382,0.979486 8.22174,-5.13859 1.66958,2.671325 -21.19251,13.245316 -1.66958,-2.671324 10.44785,-6.529904 q -1.56569,-0.259712 -3.14994,-0.549106 -1.58424,-0.289393 -3.16848,-0.578787 l -9.99152,-1.721521 -1.94785,-3.116545 14.48083,2.630513 z m -24.286824,9.813452 q -0.371017,-0.593628 -0.23374,-1.298562 0.08904,-0.716063 0.949803,-1.254043 0.831079,-0.519423 1.543431,-0.304233 0.69381,0.185513 1.06483,0.779143 0.40812,0.652993 0.27084,1.357922 -0.13727,0.704933 -0.96836,1.224357 -0.86076,0.537975 -1.524882,0.333915 -0.693803,-0.185509 -1.101922,-0.838499 z m 5.168284,-5.005034 15.90925,-9.943287 1.63248,2.61196 -15.90924,9.943296 z m 7.59476,-19.151917 q -0.37101,-0.59363 -0.84963,-1.16129 -0.50829,-0.5491 -0.86818,-0.86076 l 1.98865,-1.24291 q 0.46749,0.28569 1.06853,0.9832 0.63073,0.67896 1.07596,1.39131 0.77913,1.24662 1.03142,2.57486 0.20406,1.31711 -0.45635,2.63794 -0.66041,1.32082 -2.5897,2.52662 l -9.26062,5.787873 1.40988,2.255799 -1.24663,0.779143 -2.467278,-1.636196 -4.032958,1.075953 -0.964645,-1.543436 3.650811,-2.281766 -2.875384,-4.60061 2.018334,-1.26146 2.87539,4.60061 9.20126,-5.75077 q 1.45439,-0.90899 1.74007,-2.03688 0.23745,-1.13902 -0.44893,-2.23723 z" />
                    <path
                       style="fill:#fd7e14;fill-opacity:1;stroke:none;stroke-width:0.632521;stroke-opacity:1"
                       d="m 66.737216,41.564164 c 1.897936,-1.106571 4.704434,0.163616 6.449273,2.058353 1.744839,1.894737 2.428018,4.41403 1.62638,4.89191 -0.801639,0.47788 -3.088008,-1.085593 -2.344885,0.731822 0.743123,1.817416 4.515627,7.015537 4.365959,7.613997 -0.149668,0.598461 -4.221416,-3.40268 -4.162533,-1.812207 0.05888,1.590472 4.248314,8.772355 3.301568,8.802455 -0.946745,0.0301 -7.029386,-7.091296 -9.576204,-12.393907 -2.546819,-5.30261 -1.557493,-8.785851 0.340442,-9.892423 z"
                       id="path142"
                       transform="matrix(-0.76028456,0.64959017,0.64959017,0.76028456,166.07876,-98.364484)"
                       sodipodi:nodetypes="ccccccccc"
                       inkscape:original-d="m 65.828634,39.187397 c 2.806518,1.270195 5.613016,2.540383 8.419517,3.810571 0.683177,2.519286 1.366356,5.038579 2.049535,7.557872 -2.286456,-1.563532 -4.572825,-3.127007 -6.859236,-4.690508 3.772657,5.198333 7.545161,10.396454 11.31774,15.594679 -4.071914,-4.001305 -8.143663,-8.002445 -12.215495,-12.003668 4.189598,7.182168 8.37903,14.364051 12.568544,21.546077 -6.083006,-7.121826 -12.165646,-14.243223 -18.248653,-21.365048 0.98937,-3.483395 1.978695,-6.966636 2.968048,-10.449975 z"
                       inkscape:path-effect="#path-effect144" />
                  </g>
                </g>
              </g>
            </g>
          </g>
        </g>
      </g>
    </g>
  </g>
</svg>
